{
	"asset": {
		"generator": "Blocks",
		"version": "1.0.4",
		"copyright": "Unknown"
	},
	"buffers": {
		"model": {
			"byteLength": 180512,
			"type": "arraybuffer",
			"uri": "model.bin"
		}
	},
	"accessors": {
		"accessor_position_m0-PolyPaper22_-77712": {
			"bufferView": "vec3BufferView",
			"byteOffset": 0,
			"byteStride": 12,
			"componentType": 5126,
			"count": 3716,
			"max": [ 0.6050161, 1.315055, 0.4349954 ],
			"min": [ 0.5249612, 1.133032, 0.3549782 ],
			"type": "VEC3"
		 },
		"accessor_normal_m0-PolyPaper22_-77712": {
			"bufferView": "vec3BufferView",
			"byteOffset": 44592,
			"byteStride": 12,
			"componentType": 5126,
			"count": 3716,
			"max": [ 0.9999089, 1, 0.9972256 ],
			"min": [ -0.9993845, -1, -0.9972256 ],
			"type": "VEC3"
		 },
		"accessor_color_m0-PolyPaper22_-77712": {
			"bufferView": "vec4BufferView",
			"byteOffset": 0,
			"byteStride": 16,
			"componentType": 5126,
			"count": 3716,
			"max": [ 1, 1, 1, 1 ],
			"min": [ 0.6196079, 0.6196079, 0.6196079, 1 ],
			"type": "VEC4"
		 },
		"accessor_indices_0_m0-PolyPaper22_-77712": {
			"bufferView": "ushortBufferView",
			"byteOffset": 0,
			"byteStride": 0,
			"componentType": 5123,
			"count": 5628,
			"max": [ 3715 ],
			"min": [ 0 ],
			"type": "SCALAR"
		 },
		"accessor_position_m1-PolyGlass24_-79554": {
			"bufferView": "vec3BufferView",
			"byteOffset": 89184,
			"byteStride": 12,
			"componentType": 5126,
			"count": 480,
			"max": [ 0.6541227, 1.411054, 0.48391 ],
			"min": [ 0.476071, 1.164979, 0.3063853 ],
			"type": "VEC3"
		 },
		"accessor_normal_m1-PolyGlass24_-79554": {
			"bufferView": "vec3BufferView",
			"byteOffset": 94944,
			"byteStride": 12,
			"componentType": 5126,
			"count": 480,
			"max": [ 0.9764658, 1, 0.9770601 ],
			"min": [ -0.9764658, -1, -0.9770602 ],
			"type": "VEC3"
		 },
		"accessor_color_m1-PolyGlass24_-79554": {
			"bufferView": "vec4BufferView",
			"byteOffset": 59456,
			"byteStride": 16,
			"componentType": 5126,
			"count": 480,
			"max": [ 0.8392157, 0.8392157, 0.8392157, 0.2509804 ],
			"min": [ 0.8392157, 0.8392157, 0.8392157, 0.2509804 ],
			"type": "VEC4"
		 },
		"accessor_indices_0_m1-PolyGlass24_-79554": {
			"bufferView": "ushortBufferView",
			"byteOffset": 11256,
			"byteStride": 0,
			"componentType": 5123,
			"count": 708,
			"max": [ 479 ],
			"min": [ 0 ],
			"type": "SCALAR"
		 }
	},
	"bufferViews": {
		"ushortBufferView": {
			"buffer": "model",
			"byteLength": 12672,
			"byteOffset": 0,
			"target": 34963
		},
		"vec3BufferView": {
			"buffer": "model",
			"byteLength": 100704,
			"byteOffset": 12672,
			"target": 34962
		},
		"vec4BufferView": {
			"buffer": "model",
			"byteLength": 67136,
			"byteOffset": 113376,
			"target": 34962
		}
	},
	"meshes": {
		"mesh_m0-PolyPaper22_-77712": {
			"name": "mesh_m0-PolyPaper22_-77712",
			"primitives": [
				{
					"attributes": {
						"POSITION": "accessor_position_m0-PolyPaper22_-77712",
						"NORMAL": "accessor_normal_m0-PolyPaper22_-77712",
						"COLOR": "accessor_color_m0-PolyPaper22_-77712"
					},
					"indices": "accessor_indices_0_m0-PolyPaper22_-77712",
					"material": "material_mat22",
					"mode": 4
				}
			]
		},
		"mesh_m1-PolyGlass24_-79554": {
			"name": "mesh_m1-PolyGlass24_-79554",
			"primitives": [
				{
					"attributes": {
						"POSITION": "accessor_position_m1-PolyGlass24_-79554",
						"NORMAL": "accessor_normal_m1-PolyGlass24_-79554",
						"COLOR": "accessor_color_m1-PolyGlass24_-79554"
					},
					"indices": "accessor_indices_0_m1-PolyGlass24_-79554",
					"material": "material_mat24",
					"mode": 4
				}
			]
		}
	},
	"shaders": {
		"vertex_mat22": {
			"type": 35633,
			"uri": "https://vr.google.com/shaders/w/vs.glsl"
		},
		"fragment_mat22": {
			"type": 35632,
			"uri": "https://vr.google.com/shaders/w/fs.glsl"
		},
		"vertex_mat24": {
			"type": 35633,
			"uri": "https://vr.google.com/shaders/w/glassVS.glsl"
		},
		"fragment_mat24": {
			"type": 35632,
			"uri": "https://vr.google.com/shaders/w/glassFS.glsl"
		}
	},
	"programs": {
		"program_mat22": {
			"attributes": [
				"a_position",
				"a_normal",
				"a_color"				
			],
			"vertexShader": "vertex_mat22",
			"fragmentShader": "fragment_mat22"
		},
		"program_mat24": {
			"attributes": [
				"a_position",
				"a_normal",
				"a_color"				
			],
			"vertexShader": "vertex_mat24",
			"fragmentShader": "fragment_mat24"
		}
	},
	"techniques": {
		"technique_mat22": {
			"program": "program_mat22",
			"extras": {"gvrss" : "https://vr.google.com/shaders/w/gvrss/paper.json"},
			"parameters": {
				"position": {
					"type": 35665,
					"semantic": "POSITION"
				},
				"normal": {
					"type": 35665,
					"semantic": "NORMAL"
				},
				"color": {
					"type": 35666,
					"semantic": "COLOR"
				},
				"modelViewMatrix": {
					"type": 35676,
					"semantic": "MODELVIEW"
				},
				"projectionMatrix": {
					"type": 35676,
					"semantic": "PROJECTION"
				},
				"normalMatrix": {
					"type": 35675,
					"semantic": "MODELVIEWINVERSETRANSPOSE"
				},
				"color": {
					"type": 35666
				},
				"roughness": {
					"type": 5126
				},
				"metallic": {
					"type": 5126
				},
				"light0Pos": {
					"type": 35666
				},
				"light0Color": {
					"type": 35666
				},
				"light1Pos": {
					"type": 35666
				},
				"light1Color": {
					"type": 35666
				}				
			},
			"attributes": {
				"a_position": "position",
				"a_normal": "normal",
				"a_color": "color"				
			},
			"uniforms": {
				"u_modelViewMatrix": "modelViewMatrix",
				"u_projectionMatrix": "projectionMatrix",
				"u_normalMatrix": "normalMatrix",
				"u_color": "color",
				"u_roughness": "roughness",
				"u_metallic": "metallic",
				"u_light0Pos": "light0Pos",
				"u_light0Color": "light0Color",
				"u_light1Pos": "light1Pos",
				"u_light1Color": "light1Color"				
			},
			"states": {
				"enable": [
					2929,
					2884
				],
				"functions": {
					"cullFace": [1029]
				}
			}
		},
		"technique_mat24": {
			"program": "program_mat24",
			"extras": {"gvrss" : "https://vr.google.com/shaders/w/gvrss/glass.json"},
			"parameters": {
				"position": {
					"type": 35665,
					"semantic": "POSITION"
				},
				"normal": {
					"type": 35665,
					"semantic": "NORMAL"
				},
				"color": {
					"type": 35666,
					"semantic": "COLOR"
				},
				"modelViewMatrix": {
					"type": 35676,
					"semantic": "MODELVIEW"
				},
				"projectionMatrix": {
					"type": 35676,
					"semantic": "PROJECTION"
				},
				"normalMatrix": {
					"type": 35675,
					"semantic": "MODELVIEWINVERSETRANSPOSE"
				},
				"color": {
					"type": 35666
				},
				"roughness": {
					"type": 5126
				},
				"metallic": {
					"type": 5126
				},
				"light0Pos": {
					"type": 35666
				},
				"light0Color": {
					"type": 35666
				},
				"light1Pos": {
					"type": 35666
				},
				"light1Color": {
					"type": 35666
				}				
			},
			"attributes": {
				"a_position": "position",
				"a_normal": "normal",
				"a_color": "color"				
			},
			"uniforms": {
				"u_modelViewMatrix": "modelViewMatrix",
				"u_projectionMatrix": "projectionMatrix",
				"u_normalMatrix": "normalMatrix",
				"u_color": "color",
				"u_roughness": "roughness",
				"u_metallic": "metallic",
				"u_light0Pos": "light0Pos",
				"u_light0Color": "light0Color",
				"u_light1Pos": "light1Pos",
				"u_light1Color": "light1Color"				
			},
			"states": {
				"enable": [
					2929,
					3042
				],
				"functions": {
					"blendFuncSeparate": [775, 774, 773, 772],
					"depthMask": [true]
				}
			}
		}
	},
	"materials": {
		"material_mat22": {
			"technique": "technique_mat22",
			"values": {
				"color": [0.6196079, 0.6196079, 0.6196079, 1],
				"roughness": 0.72,
				"metallic": 0,
				"light0Pos": [-0.02, 4.11, -0.54, 0],
				"light0Color": [0.8, 0.8, 0.8, 0],
				"light1Pos": [0.02, -4.11, 0.54, 0],
				"light1Color": [0.64, 0.5647059, 0.5647059, 0]				
			},
			"name": "material_mat22"
		},
		"material_mat24": {
			"technique": "technique_mat24",
			"values": {
				"color": [0.8392157, 0.8392157, 0.8392157, 0.2509804],
				"roughness": 0,
				"metallic": 0,
				"light0Pos": [-0.02, 4.11, -0.54, 0],
				"light0Color": [0.8, 0.8, 0.8, 0],
				"light1Pos": [0.02, -4.11, 0.54, 0],
				"light1Color": [0.64, 0.5647059, 0.5647059, 0]				
			},
			"name": "material_mat24"
		}
	},
	"nodes": {
		"node_MeshObject-1023221568-PolyPaper22": {
			"name": "node_MeshObject-1023221568-PolyPaper22",
			"meshes": [
				"mesh_m0-PolyPaper22_-77712"
			],
			"matrix": [1, 0, 0, 0, 0, 1, 0, 0, 0, 0, 1, 0, 0, 0, 0, 1]
		},
		"node_MeshObject-1723984896-PolyGlass24": {
			"name": "node_MeshObject-1723984896-PolyGlass24",
			"meshes": [
				"mesh_m1-PolyGlass24_-79554"
			],
			"matrix": [1, 0, 0, 0, 0, 1, 0, 0, 0, 0, 1, 0, 0, 0, 0, 1]
		}
	},
	"scene": "defaultScene",
	"scenes": {
		"defaultScene": {
			"nodes": [
				"node_MeshObject-1023221568-PolyPaper22",
				"node_MeshObject-1723984896-PolyGlass24"
			],
			"extras": {

			}
		}
	}
}